ply
format ascii 1.0
element vertex 1026
property float x
property float y
property float z
property float normal_x
property float normal_y
property float normal_z
property uchar red
property uchar green
property uchar blue
property uchar alpha
end_header
0.720094 -0.128399 1.445 0 0 0 158 171 176 255
0.717104 -0.147703 1.439 0 0 0 160 173 189 255
0.717104 -0.150183 1.439 0 0 0 158 173 195 255
0.714114 -0.154495 1.433 0 0 0 161 173 201 255
0.714114 -0.156964 1.433 0 0 0 164 173 202 255
0.711124 -0.158766 1.427 0 0 0 162 171 199 255
0.711124 -0.161225 1.427 0 0 0 162 171 197 255
0.705144 -0.174498 1.415 0 0 0 162 175 205 255
0.702652 -0.178741 1.41 0 0 0 167 179 204 255
0.702652 -0.181171 1.41 0 0 0 160 174 198 255
0.702652 -0.1836 1.41 0 0 0 161 173 201 255
0.699662 -0.185238 1.404 0 0 0 163 175 201 255
0.699662 -0.187658 1.404 0 0 0 165 177 200 255
0.699662 -0.190077 1.404 0 0 0 161 173 201 255
0.699662 -0.192496 1.404 0 0 0 161 174 206 255
0.699662 -0.194915 1.404 0 0 0 162 175 205 255
0.696672 -0.1989 1.398 0 0 0 161 178 200 255
0.696672 -0.201309 1.398 0 0 0 167 180 198 255
0.693682 -0.207641 1.392 0 0 0 164 173 200 255
0.69119 -0.216455 1.387 0 0 0 163 177 202 255
0.69119 -0.218845 1.387 0 0 0 164 178 203 255
0.6882 -0.225037 1.381 0 0 0 161 178 202 255
0.685709 -0.228965 1.376 0 0 0 162 181 204 255
0.685709 -0.231336 1.376 0 0 0 168 182 205 255
0.682719 -0.232688 1.37 0 0 0 165 180 202 255
0.682719 -0.235048 1.37 0 0 0 171 186 206 255
0.682719 -0.237409 1.37 0 0 0 168 182 207 255
0.682719 -0.23977 1.37 0 0 0 169 182 212 255
0.677237 -0.251895 1.359 0 0 0 166 180 207 255
0.674745 -0.255634 1.354 0 0 0 168 180 205 255
0.714621 -0.147703 1.439 0 0 0 161 174 190 255
0.714621 -0.150183 1.439 0 0 0 160 174 196 255
0.711641 -0.154495 1.433 0 0 0 160 171 199 255
0.711641 -0.156964 1.433 0 0 0 163 172 201 255
0.708661 -0.158766 1.427 0 0 0 160 169 198 255
0.708661 -0.161225 1.427 0 0 0 162 171 197 255
0.705682 -0.162995 1.421 0 0 0 158 172 199 255
0.702702 -0.174498 1.415 0 0 0 161 174 204 255
0.700219 -0.1836 1.41 0 0 0 160 171 199 255
0.697239 -0.185238 1.404 0 0 0 161 173 198 255
0.697239 -0.187658 1.404 0 0 0 162 174 198 255
0.697239 -0.190077 1.404 0 0 0 161 173 201 255
0.697239 -0.192496 1.404 0 0 0 162 175 207 255
0.697239 -0.194915 1.404 0 0 0 162 175 205 255
0.69426 -0.1989 1.398 0 0 0 161 178 200 255
0.69426 -0.201309 1.398 0 0 0 166 179 197 255
0.69128 -0.207641 1.392 0 0 0 166 176 202 255
0.69128 -0.212438 1.392 0 0 0 162 174 198 255
0.688797 -0.216455 1.387 0 0 0 160 174 198 255
0.688797 -0.218845 1.387 0 0 0 163 177 202 255
0.685817 -0.225037 1.381 0 0 0 158 175 198 255
0.683334 -0.228965 1.376 0 0 0 160 179 202 255
0.683334 -0.231336 1.376 0 0 0 165 180 202 255
0.680354 -0.232688 1.37 0 0 0 162 176 199 255
0.680354 -0.235048 1.37 0 0 0 165 180 200 255
0.680354 -0.237409 1.37 0 0 0 165 180 204 255
0.680354 -0.23977 1.37 0 0 0 164 178 207 255
0.674892 -0.251895 1.359 0 0 0 164 178 205 255
0.715107 -0.128399 1.445 0 0 0 178 180 127 255
0.712137 -0.142744 1.439 0 0 0 163 174 190 255
0.712137 -0.147703 1.439 0 0 0 163 174 190 255
0.712137 -0.150183 1.439 0 0 0 159 171 194 255
0.709168 -0.152026 1.433 0 0 0 159 170 200 255
0.709168 -0.154495 1.433 0 0 0 158 170 191 255
0.706199 -0.156307 1.427 0 0 0 165 174 192 255
0.706199 -0.158766 1.427 0 0 0 169 172 194 255
0.706199 -0.161225 1.427 0 0 0 163 170 199 255
0.703229 -0.162995 1.421 0 0 0 161 173 201 255
0.697786 -0.1836 1.41 0 0 0 161 173 198 255
0.697786 -0.18603 1.41 0 0 0 163 172 198 255
0.694816 -0.187658 1.404 0 0 0 166 179 197 255
0.694816 -0.190077 1.404 0 0 0 163 178 198 255
0.694816 -0.192496 1.404 0 0 0 161 178 200 255
0.694816 -0.194915 1.404 0 0 0 160 177 199 255
0.691847 -0.1989 1.398 0 0 0 163 178 200 255
0.691847 -0.201309 1.398 0 0 0 164 179 201 255
0.688878 -0.207641 1.392 0 0 0 167 177 203 255
0.688878 -0.212438 1.392 0 0 0 162 175 205 255
0.686403 -0.216455 1.387 0 0 0 164 178 205 255
0.686403 -0.218845 1.387 0 0 0 172 183 209 255
0.683434 -0.225037 1.381 0 0 0 162 181 204 255
0.683434 -0.227417 1.381 0 0 0 164 180 204 255
0.68096 -0.231336 1.376 0 0 0 168 181 211 255
0.67799 -0.235048 1.37 0 0 0 166 179 216 255
0.67799 -0.237409 1.37 0 0 0 165 178 210 255
0.67799 -0.23977 1.37 0 0 0 164 178 207 255
0.672547 -0.251895 1.359 0 0 0 168 180 219 255
0.712613 -0.128399 1.445 0 0 0 190 192 139 255
0.709654 -0.142744 1.439 0 0 0 163 174 190 255
0.709654 -0.145223 1.439 0 0 0 165 174 192 255
0.706695 -0.152026 1.433 0 0 0 156 167 198 255
0.703736 -0.153848 1.427 0 0 0 155 168 189 255
0.700777 -0.158098 1.421 0 0 0 167 171 192 255
0.700777 -0.160547 1.421 0 0 0 162 169 198 255
0.700777 -0.162995 1.421 0 0 0 160 171 199 255
0.695352 -0.1836 1.41 0 0 0 161 173 198 255
0.695352 -0.18603 1.41 0 0 0 163 172 198 255
0.692393 -0.187658 1.404 0 0 0 165 178 196 255
0.692393 -0.190077 1.404 0 0 0 164 179 199 255
0.692393 -0.192496 1.404 0 0 0 161 178 200 255
0.689435 -0.1989 1.398 0 0 0 163 178 200 255
0.689435 -0.201309 1.398 0 0 0 163 178 200 255
0.689435 -0.203718 1.398 0 0 0 163 177 202 255
0.686476 -0.205242 1.392 0 0 0 165 176 202 255
0.686476 -0.207641 1.392 0 0 0 169 178 204 255
0.686476 -0.212438 1.392 0 0 0 161 174 204 255
0.68401 -0.214065 1.387 0 0 0 163 176 208 255
0.68401 -0.216455 1.387 0 0 0 160 173 201 255
0.68401 -0.218845 1.387 0 0 0 166 178 203 255
0.681051 -0.227417 1.381 0 0 0 163 179 203 255
0.678585 -0.231336 1.376 0 0 0 163 176 206 255
0.675626 -0.237409 1.37 0 0 0 162 175 207 255
0.675626 -0.23977 1.37 0 0 0 165 179 208 255
0.67316 -0.245951 1.365 0 0 0 165 182 203 255
0.670201 -0.251895 1.359 0 0 0 162 174 213 255
0.667736 -0.253301 1.354 0 0 0 165 173 207 255
0.710119 -0.128399 1.445 0 0 0 212 200 107 255
0.704222 -0.152026 1.433 0 0 0 163 173 192 255
0.701274 -0.153848 1.427 0 0 0 163 172 196 255
0.698325 -0.158098 1.421 0 0 0 163 172 198 255
0.698325 -0.160547 1.421 0 0 0 160 170 196 255
0.698325 -0.162995 1.421 0 0 0 163 172 196 255
0.695376 -0.17206 1.415 0 0 0 162 174 200 255
0.695376 -0.181813 1.415 0 0 0 161 173 198 255
0.692919 -0.1836 1.41 0 0 0 160 172 197 255
0.692919 -0.18603 1.41 0 0 0 163 172 198 255
0.692919 -0.188459 1.41 0 0 0 161 173 198 255
0.68997 -0.192496 1.404 0 0 0 166 180 207 255
0.687022 -0.194082 1.398 0 0 0 160 177 199 255
0.687022 -0.1989 1.398 0 0 0 163 178 200 255
0.687022 -0.201309 1.398 0 0 0 162 176 199 255
0.687022 -0.203718 1.398 0 0 0 163 180 199 255
0.684073 -0.205242 1.392 0 0 0 169 182 203 255
0.684073 -0.207641 1.392 0 0 0 167 179 193 255
0.684073 -0.212438 1.392 0 0 0 166 179 195 255
0.681616 -0.214065 1.387 0 0 0 166 181 201 255
0.681616 -0.216455 1.387 0 0 0 164 181 200 255
0.681616 -0.218845 1.387 0 0 0 168 181 197 255
0.67621 -0.231336 1.376 0 0 0 163 177 204 255
0.673262 -0.237409 1.37 0 0 0 169 181 207 255
0.673262 -0.23977 1.37 0 0 0 170 182 210 255
0.670805 -0.245951 1.365 0 0 0 166 180 207 255
0.667856 -0.251895 1.359 0 0 0 165 179 208 255
0.704687 -0.142744 1.439 0 0 0 161 175 198 255
0.704687 -0.145223 1.439 0 0 0 159 171 194 255
0.704687 -0.150183 1.439 0 0 0 163 173 192 255
0.701749 -0.152026 1.433 0 0 0 163 173 192 255
0.698811 -0.153848 1.427 0 0 0 164 174 198 255
0.698811 -0.156307 1.427 0 0 0 163 172 196 255
0.698811 -0.158766 1.427 0 0 0 163 172 198 255
0.695873 -0.160547 1.421 0 0 0 163 172 198 255
0.692934 -0.169622 1.415 0 0 0 161 173 198 255
0.692934 -0.181813 1.415 0 0 0 161 173 198 255
0.690486 -0.188459 1.41 0 0 0 162 174 200 255
0.687548 -0.194915 1.404 0 0 0 161 178 200 255
0.687548 -0.197335 1.404 0 0 0 162 178 193 255
0.684609 -0.1989 1.398 0 0 0 163 178 200 255
0.684609 -0.201309 1.398 0 0 0 163 178 200 255
0.681671 -0.205242 1.392 0 0 0 167 179 200 255
0.681671 -0.207641 1.392 0 0 0 166 178 192 255
0.681671 -0.212438 1.392 0 0 0 167 180 196 255
0.679223 -0.216455 1.387 0 0 0 164 181 200 255
0.679223 -0.218845 1.387 0 0 0 167 180 196 255
0.676284 -0.227417 1.381 0 0 0 165 182 203 255
0.673836 -0.231336 1.376 0 0 0 164 178 205 255
0.670898 -0.237409 1.37 0 0 0 169 181 207 255
0.670898 -0.23977 1.37 0 0 0 167 178 206 255
0.668449 -0.245951 1.365 0 0 0 166 180 207 255
0.663062 -0.255634 1.354 0 0 0 167 178 206 255
0.702204 -0.140264 1.439 0 0 0 172 182 133 255
0.702204 -0.142744 1.439 0 0 0 173 182 154 255
0.702204 -0.145223 1.439 0 0 0 167 178 167 255
0.702204 -0.150183 1.439 0 0 0 160 176 188 255
0.699276 -0.152026 1.433 0 0 0 161 174 192 255
0.696348 -0.153848 1.427 0 0 0 163 173 192 255
0.696348 -0.156307 1.427 0 0 0 163 172 196 255
0.696348 -0.158766 1.427 0 0 0 161 173 198 255
0.696348 -0.161225 1.427 0 0 0 160 172 197 255
0.690493 -0.181813 1.415 0 0 0 163 176 199 255
0.685125 -0.194915 1.404 0 0 0 161 178 200 255
0.682197 -0.1989 1.398 0 0 0 163 178 200 255
0.682197 -0.201309 1.398 0 0 0 163 177 204 255
0.679269 -0.205242 1.392 0 0 0 165 178 210 255
0.679269 -0.207641 1.392 0 0 0 164 178 207 255
0.679269 -0.212438 1.392 0 0 0 164 178 205 255
0.676829 -0.216455 1.387 0 0 0 163 179 205 255
0.676829 -0.218845 1.387 0 0 0 168 180 203 255
0.671461 -0.231336 1.376 0 0 0 170 183 202 255
0.668533 -0.237409 1.37 0 0 0 169 178 204 255
0.666094 -0.243599 1.365 0 0 0 168 179 210 255
0.660726 -0.255634 1.354 0 0 0 162 176 203 255
0.699721 -0.147703 1.439 0 0 0 165 178 183 255
0.699721 -0.150183 1.439 0 0 0 156 172 185 255
0.696803 -0.154495 1.433 0 0 0 163 173 192 255
0.696803 -0.156964 1.433 0 0 0 163 172 196 255
0.693886 -0.161225 1.427 0 0 0 160 172 197 255
0.693886 -0.163684 1.427 0 0 0 161 173 198 255
0.682702 -0.194915 1.404 0 0 0 159 176 198 255
0.679784 -0.1989 1.398 0 0 0 164 179 201 255
0.679784 -0.201309 1.398 0 0 0 162 176 203 255
0.676867 -0.205242 1.392 0 0 0 164 177 209 255
0.676867 -0.207641 1.392 0 0 0 164 178 207 255
0.676867 -0.212438 1.392 0 0 0 165 179 206 255
0.674436 -0.216455 1.387 0 0 0 163 179 205 255
0.674436 -0.218845 1.387 0 0 0 167 179 202 255
0.671518 -0.227417 1.381 0 0 0 163 176 208 255
0.669087 -0.231336 1.376 0 0 0 169 182 201 255
0.663738 -0.243599 1.365 0 0 0 166 177 207 255
0.663738 -0.245951 1.365 0 0 0 162 176 203 255
0.663738 -0.248303 1.365 0 0 0 165 179 208 255
0.66082 -0.249553 1.359 0 0 0 163 178 207 255
0.66082 -0.251895 1.359 0 0 0 161 177 206 255
0.658389 -0.255634 1.354 0 0 0 163 177 204 255
0.697237 -0.145223 1.439 0 0 0 193 186 120 255
0.697237 -0.147703 1.439 0 0 0 179 180 136 255
0.697237 -0.150183 1.439 0 0 0 172 175 156 255
0.69433 -0.154495 1.433 0 0 0 163 174 186 255
0.69433 -0.156964 1.433 0 0 0 161 173 196 255
0.691423 -0.161225 1.427 0 0 0 163 176 199 255
0.691423 -0.163684 1.427 0 0 0 165 177 200 255
0.685609 -0.174498 1.415 0 0 0 161 173 196 255
0.683186 -0.188459 1.41 0 0 0 166 179 197 255
0.680279 -0.192496 1.404 0 0 0 165 177 200 255
0.677372 -0.194082 1.398 0 0 0 165 177 200 255
0.677372 -0.1989 1.398 0 0 0 167 178 197 255
0.677372 -0.201309 1.398 0 0 0 165 178 196 255
0.674465 -0.205242 1.392 0 0 0 165 179 206 255
0.674465 -0.212438 1.392 0 0 0 165 180 204 255
0.672042 -0.216455 1.387 0 0 0 167 179 204 255
0.672042 -0.218845 1.387 0 0 0 167 179 204 255
0.663805 -0.237409 1.37 0 0 0 167 180 198 255
0.663805 -0.23977 1.37 0 0 0 172 185 203 255
0.661382 -0.243599 1.365 0 0 0 168 180 205 255
0.661382 -0.245951 1.365 0 0 0 167 179 202 255
0.656052 -0.255634 1.354 0 0 0 166 185 197 255
0.656052 -0.257968 1.354 0 0 0 168 183 203 255
0.694754 -0.150183 1.439 0 0 0 178 181 162 255
0.691857 -0.154495 1.433 0 0 0 159 171 183 255
0.691857 -0.156964 1.433 0 0 0 161 173 196 255
0.68896 -0.161225 1.427 0 0 0 162 174 198 255
0.68896 -0.163684 1.427 0 0 0 163 176 199 255
0.683167 -0.179375 1.415 0 0 0 165 178 196 255
0.680753 -0.188459 1.41 0 0 0 165 178 196 255
0.677856 -0.192496 1.404 0 0 0 165 177 200 255
0.674959 -0.194082 1.398 0 0 0 165 177 200 255
0.674959 -0.1989 1.398 0 0 0 169 179 198 255
0.674959 -0.201309 1.398 0 0 0 163 176 195 255
0.674959 -0.203718 1.398 0 0 0 159 176 198 255
0.672062 -0.205242 1.392 0 0 0 163 177 204 255
0.672062 -0.212438 1.392 0 0 0 165 180 204 255
0.669648 -0.216455 1.387 0 0 0 167 179 204 255
0.661441 -0.237409 1.37 0 0 0 163 176 195 255
0.661441 -0.23977 1.37 0 0 0 169 182 201 255
0.659027 -0.243599 1.365 0 0 0 168 180 205 255
0.659027 -0.245951 1.365 0 0 0 165 177 200 255
0.689384 -0.154495 1.433 0 0 0 169 172 141 255
0.686498 -0.161225 1.427 0 0 0 161 174 204 255
0.686498 -0.163684 1.427 0 0 0 163 175 201 255
0.680725 -0.17206 1.415 0 0 0 167 177 201 255
0.680725 -0.176937 1.415 0 0 0 163 176 199 255
0.67832 -0.188459 1.41 0 0 0 163 175 201 255
0.675433 -0.192496 1.404 0 0 0 163 176 208 255
0.672547 -0.1989 1.398 0 0 0 172 177 200 255
0.672547 -0.201309 1.398 0 0 0 167 177 201 255
0.664368 -0.225037 1.381 0 0 0 168 180 205 255
0.661963 -0.228965 1.376 0 0 0 165 181 210 255
0.661963 -0.231336 1.376 0 0 0 173 184 214 255
0.659076 -0.237409 1.37 0 0 0 169 182 203 255
0.659076 -0.23977 1.37 0 0 0 170 183 202 255
0.656671 -0.243599 1.365 0 0 0 168 179 207 255
0.684035 -0.166143 1.427 0 0 0 163 176 199 255
0.678283 -0.176937 1.415 0 0 0 160 172 195 255
0.675886 -0.18603 1.41 0 0 0 165 176 195 255
0.675886 -0.188459 1.41 0 0 0 163 175 201 255
0.67301 -0.192496 1.404 0 0 0 163 176 208 255
0.670134 -0.196491 1.398 0 0 0 167 177 203 255
0.670134 -0.1989 1.398 0 0 0 172 177 200 255
0.664861 -0.218845 1.387 0 0 0 168 181 211 255
0.661985 -0.222658 1.381 0 0 0 166 181 205 255
0.661985 -0.225037 1.381 0 0 0 169 181 207 255
0.659588 -0.226594 1.376 0 0 0 168 179 207 255
0.659588 -0.228965 1.376 0 0 0 165 181 210 255
0.659588 -0.231336 1.376 0 0 0 170 181 212 255
0.656712 -0.237409 1.37 0 0 0 169 182 203 255
0.656712 -0.23977 1.37 0 0 0 169 182 201 255
0.656712 -0.24213 1.37 0 0 0 168 182 205 255
0.654315 -0.243599 1.365 0 0 0 168 179 207 255
0.654315 -0.245951 1.365 0 0 0 164 178 205 255
0.649043 -0.253301 1.354 0 0 0 163 182 210 255
0.649043 -0.257968 1.354 0 0 0 166 182 209 255
0.681573 -0.166143 1.427 0 0 0 163 175 182 255
0.678707 -0.167893 1.421 0 0 0 158 176 188 255
0.675841 -0.179375 1.415 0 0 0 169 179 196 255
0.675841 -0.181813 1.415 0 0 0 167 180 196 255
0.673453 -0.1836 1.41 0 0 0 167 178 195 255
0.673453 -0.18603 1.41 0 0 0 165 177 200 255
0.673453 -0.188459 1.41 0 0 0 163 177 202 255
0.670587 -0.190077 1.404 0 0 0 161 178 202 255
0.670587 -0.192496 1.404 0 0 0 163 178 200 255
0.667722 -0.201309 1.398 0 0 0 167 178 199 255
0.664856 -0.212438 1.392 0 0 0 169 182 201 255
0.662468 -0.218845 1.387 0 0 0 174 187 205 255
0.659602 -0.222658 1.381 0 0 0 169 181 205 255
0.659602 -0.225037 1.381 0 0 0 169 182 203 255
0.657214 -0.226594 1.376 0 0 0 168 181 199 255
0.657214 -0.228965 1.376 0 0 0 165 182 201 255
0.657214 -0.231336 1.376 0 0 0 168 180 203 255
0.654348 -0.237409 1.37 0 0 0 166 183 205 255
0.654348 -0.23977 1.37 0 0 0 166 181 203 255
0.654348 -0.24213 1.37 0 0 0 169 183 208 255
0.65196 -0.243599 1.365 0 0 0 172 187 211 255
0.65196 -0.245951 1.365 0 0 0 168 185 209 255
0.649094 -0.249553 1.359 0 0 0 170 183 206 255
0.646706 -0.253301 1.354 0 0 0 169 183 206 255
0.68096 -0.233707 1.376 0 0 0 165 176 206 255
0.673399 -0.181813 1.415 0 0 0 167 180 196 255
0.67102 -0.1836 1.41 0 0 0 166 177 194 255
0.67102 -0.18603 1.41 0 0 0 165 177 200 255
0.67102 -0.188459 1.41 0 0 0 163 177 202 255
0.665309 -0.1989 1.398 0 0 0 166 177 194 255
0.662454 -0.21004 1.392 0 0 0 168 181 201 255
0.662454 -0.212438 1.392 0 0 0 168 181 199 255
0.660074 -0.218845 1.387 0 0 0 170 183 202 255
0.657219 -0.222658 1.381 0 0 0 167 179 202 255
0.657219 -0.225037 1.381 0 0 0 168 181 201 255
0.654839 -0.228965 1.376 0 0 0 166 183 203 255
0.654839 -0.231336 1.376 0 0 0 168 180 203 255
0.651984 -0.237409 1.37 0 0 0 166 183 205 255
0.651984 -0.23977 1.37 0 0 0 166 181 203 255
0.651984 -0.24213 1.37 0 0 0 165 180 204 255
0.649604 -0.243599 1.365 0 0 0 172 187 211 255
0.649604 -0.245951 1.365 0 0 0 170 186 210 255
0.646749 -0.249553 1.359 0 0 0 172 184 207 255
0.646749 -0.251895 1.359 0 0 0 170 183 206 255
0.678585 -0.233707 1.376 0 0 0 165 176 206 255
0.668587 -0.188459 1.41 0 0 0 165 181 210 255
0.665742 -0.192496 1.404 0 0 0 164 181 202 255
0.660051 -0.21004 1.392 0 0 0 168 182 205 255
0.660051 -0.212438 1.392 0 0 0 165 182 203 255
0.657681 -0.218845 1.387 0 0 0 169 183 208 255
0.654836 -0.222658 1.381 0 0 0 164 178 203 255
0.654836 -0.225037 1.381 0 0 0 168 182 205 255
0.652465 -0.228965 1.376 0 0 0 168 182 205 255
0.652465 -0.233707 1.376 0 0 0 170 182 208 255
0.64962 -0.23977 1.37 0 0 0 168 181 201 255
0.64962 -0.24213 1.37 0 0 0 170 183 204 255
0.647249 -0.243599 1.365 0 0 0 173 185 206 255
0.647249 -0.245951 1.365 0 0 0 170 185 205 255
0.644404 -0.251895 1.359 0 0 0 169 181 209 255
0.67621 -0.233707 1.376 0 0 0 165 176 202 255
0.663319 -0.194915 1.404 0 0 0 168 182 207 255
0.657649 -0.21004 1.392 0 0 0 166 181 203 255
0.657649 -0.212438 1.392 0 0 0 165 182 203 255
0.655287 -0.218845 1.387 0 0 0 165 180 204 255
0.652452 -0.222658 1.381 0 0 0 165 180 204 255
0.652452 -0.225037 1.381 0 0 0 166 181 203 255
0.65009 -0.226594 1.376 0 0 0 166 181 203 255
0.65009 -0.228965 1.376 0 0 0 168 182 205 255
0.65009 -0.231336 1.376 0 0 0 166 181 205 255
0.65009 -0.233707 1.376 0 0 0 165 176 202 255
0.647255 -0.237409 1.37 0 0 0 166 183 207 255
0.647255 -0.23977 1.37 0 0 0 169 182 203 255
0.647255 -0.24213 1.37 0 0 0 169 182 203 255
0.644893 -0.245951 1.365 0 0 0 171 186 206 255
0.642058 -0.251895 1.359 0 0 0 168 179 207 255
0.639696 -0.255634 1.354 0 0 0 170 185 203 255
0.66372 -0.188459 1.41 0 0 0 164 180 197 255
0.660896 -0.194915 1.404 0 0 0 165 181 196 255
0.660896 -0.197335 1.404 0 0 0 163 179 194 255
0.658071 -0.201309 1.398 0 0 0 165 181 198 255
0.655247 -0.21004 1.392 0 0 0 166 180 207 255
0.655247 -0.212438 1.392 0 0 0 165 182 205 255
0.652893 -0.218845 1.387 0 0 0 166 180 207 255
0.650069 -0.222658 1.381 0 0 0 169 181 209 255
0.650069 -0.225037 1.381 0 0 0 168 180 203 255
0.647715 -0.228965 1.376 0 0 0 168 183 201 255
0.647715 -0.233707 1.376 0 0 0 170 179 203 255
0.644891 -0.237409 1.37 0 0 0 168 182 207 255
0.644891 -0.23977 1.37 0 0 0 169 181 207 255
0.644891 -0.24213 1.37 0 0 0 169 181 205 255
0.642538 -0.243599 1.365 0 0 0 168 180 205 255
0.642538 -0.245951 1.365 0 0 0 170 183 202 255
0.642538 -0.248303 1.365 0 0 0 170 184 198 255
0.639713 -0.251895 1.359 0 0 0 169 182 214 255
0.661287 -0.188459 1.41 0 0 0 164 180 197 255
0.658473 -0.194915 1.404 0 0 0 162 178 193 255
0.658473 -0.197335 1.404 0 0 0 163 179 194 255
0.655659 -0.201309 1.398 0 0 0 165 181 198 255
0.652845 -0.21004 1.392 0 0 0 168 181 209 255
0.652845 -0.212438 1.392 0 0 0 165 182 205 255
0.6505 -0.218845 1.387 0 0 0 165 179 206 255
0.647686 -0.222658 1.381 0 0 0 167 178 206 255
0.647686 -0.225037 1.381 0 0 0 166 178 201 255
0.645341 -0.228965 1.376 0 0 0 169 184 202 255
0.645341 -0.231336 1.376 0 0 0 174 182 200 255
0.645341 -0.233707 1.376 0 0 0 170 179 203 255
0.642527 -0.237409 1.37 0 0 0 165 180 204 255
0.642527 -0.23977 1.37 0 0 0 167 179 204 255
0.640182 -0.241247 1.365 0 0 0 166 178 201 255
0.640182 -0.243599 1.365 0 0 0 168 180 205 255
0.640182 -0.245951 1.365 0 0 0 169 182 201 255
0.640182 -0.248303 1.365 0 0 0 168 182 195 255
0.673836 -0.233707 1.376 0 0 0 163 175 201 255
0.658854 -0.188459 1.41 0 0 0 169 179 198 255
0.65605 -0.194915 1.404 0 0 0 169 179 198 255
0.65605 -0.197335 1.404 0 0 0 169 179 198 255
0.653246 -0.201309 1.398 0 0 0 167 178 199 255
0.653246 -0.203718 1.398 0 0 0 167 180 198 255
0.650443 -0.21004 1.392 0 0 0 175 189 202 255
0.650443 -0.212438 1.392 0 0 0 169 182 201 255
0.645303 -0.225037 1.381 0 0 0 170 183 206 255
0.642966 -0.228965 1.376 0 0 0 172 185 201 255
0.642966 -0.231336 1.376 0 0 0 172 185 201 255
0.642966 -0.233707 1.376 0 0 0 170 181 197 255
0.640163 -0.237409 1.37 0 0 0 170 183 202 255
0.640163 -0.23977 1.37 0 0 0 169 185 200 255
0.637826 -0.241247 1.365 0 0 0 170 185 205 255
0.637826 -0.243599 1.365 0 0 0 173 185 206 255
0.637826 -0.245951 1.365 0 0 0 170 183 206 255
0.637826 -0.248303 1.365 0 0 0 169 181 205 255
0.635023 -0.256578 1.359 0 0 0 169 181 209 255
0.671461 -0.233707 1.376 0 0 0 170 183 202 255
0.65642 -0.188459 1.41 0 0 0 169 179 198 255
0.653627 -0.194915 1.404 0 0 0 169 179 198 255
0.653627 -0.197335 1.404 0 0 0 169 179 198 255
0.650834 -0.203718 1.398 0 0 0 167 180 198 255
0.64804 -0.21004 1.392 0 0 0 170 184 198 255
0.64804 -0.212438 1.392 0 0 0 169 182 201 255
0.642919 -0.225037 1.381 0 0 0 170 183 206 255
0.640592 -0.228965 1.376 0 0 0 168 181 197 255
0.640592 -0.231336 1.376 0 0 0 167 180 196 255
0.640592 -0.233707 1.376 0 0 0 167 178 195 255
0.637798 -0.23977 1.37 0 0 0 170 186 201 255
0.635471 -0.241247 1.365 0 0 0 170 185 205 255
0.635471 -0.243599 1.365 0 0 0 172 184 205 255
0.635471 -0.245951 1.365 0 0 0 170 183 206 255
0.632677 -0.251895 1.359 0 0 0 172 184 207 255
0.632677 -0.256578 1.359 0 0 0 170 182 210 255
0.653987 -0.18603 1.41 0 0 0 171 181 164 255
0.653987 -0.188459 1.41 0 0 0 173 181 187 255
0.651204 -0.197335 1.404 0 0 0 172 177 198 255
0.645638 -0.21004 1.392 0 0 0 169 180 192 255
0.645638 -0.212438 1.392 0 0 0 168 181 199 255
0.640536 -0.225037 1.381 0 0 0 170 183 204 255
0.638217 -0.228965 1.376 0 0 0 170 188 202 255
0.638217 -0.231336 1.376 0 0 0 171 187 202 255
0.635434 -0.23977 1.37 0 0 0 177 190 211 255
0.633115 -0.241247 1.365 0 0 0 169 183 208 255
0.633115 -0.243599 1.365 0 0 0 168 181 209 255
0.633115 -0.245951 1.365 0 0 0 169 183 210 255
0.630332 -0.256578 1.359 0 0 0 175 188 216 255
0.651554 -0.18603 1.41 0 0 0 173 183 166 255
0.651554 -0.188459 1.41 0 0 0 174 182 188 255
0.648781 -0.194915 1.404 0 0 0 172 178 196 255
0.648781 -0.197335 1.404 0 0 0 173 179 199 255
0.646009 -0.201309 1.398 0 0 0 172 178 196 255
0.643236 -0.21004 1.392 0 0 0 169 180 192 255
0.643236 -0.212438 1.392 0 0 0 169 182 201 255
0.640926 -0.218845 1.387 0 0 0 171 179 201 255
0.638153 -0.225037 1.381 0 0 0 170 183 204 255
0.635843 -0.228965 1.376 0 0 0 170 188 202 255
0.635843 -0.231336 1.376 0 0 0 171 187 202 255
0.63076 -0.241247 1.365 0 0 0 166 181 205 255
0.63076 -0.243599 1.365 0 0 0 169 183 210 255
0.63076 -0.245951 1.365 0 0 0 170 184 211 255
0.627987 -0.256578 1.359 0 0 0 170 184 211 255
0.649121 -0.188459 1.41 0 0 0 183 186 126 255
0.646358 -0.194915 1.404 0 0 0 172 178 194 255
0.646358 -0.197335 1.404 0 0 0 172 177 202 255
0.640834 -0.21004 1.392 0 0 0 170 180 199 255
0.640834 -0.212438 1.392 0 0 0 172 182 204 255
0.638532 -0.218845 1.387 0 0 0 172 178 196 255
0.63577 -0.225037 1.381 0 0 0 170 182 210 255
0.633468 -0.228965 1.376 0 0 0 167 184 206 255
0.633468 -0.231336 1.376 0 0 0 170 184 209 255
0.630706 -0.23977 1.37 0 0 0 169 182 203 255
0.630706 -0.24213 1.37 0 0 0 169 184 202 255
0.628404 -0.245951 1.365 0 0 0 171 186 208 255
0.628404 -0.248303 1.365 0 0 0 169 183 210 255
0.625642 -0.251895 1.359 0 0 0 172 187 209 255
0.664338 -0.233707 1.376 0 0 0 167 180 198 255
0.646687 -0.188459 1.41 0 0 0 190 193 133 255
0.643935 -0.194915 1.404 0 0 0 172 178 194 255
0.638432 -0.207641 1.392 0 0 0 172 183 202 255
0.638432 -0.21004 1.392 0 0 0 170 180 199 255
0.638432 -0.212438 1.392 0 0 0 166 176 198 255
0.636138 -0.218845 1.387 0 0 0 171 177 195 255
0.633387 -0.222658 1.381 0 0 0 171 179 213 255
0.633387 -0.225037 1.381 0 0 0 168 179 207 255
0.631093 -0.228965 1.376 0 0 0 163 180 201 255
0.631093 -0.231336 1.376 0 0 0 168 182 207 255
0.628342 -0.23977 1.37 0 0 0 170 183 204 255
0.628342 -0.24213 1.37 0 0 0 170 185 203 255
0.641513 -0.194915 1.404 0 0 0 180 182 145 255
0.63603 -0.207641 1.392 0 0 0 174 183 198 255
0.63603 -0.21004 1.392 0 0 0 177 186 199 255
0.63603 -0.212438 1.392 0 0 0 172 185 199 255
0.633745 -0.218845 1.387 0 0 0 174 183 198 255
0.631003 -0.222658 1.381 0 0 0 174 182 202 255
0.631003 -0.225037 1.381 0 0 0 174 181 204 255
0.631003 -0.227417 1.381 0 0 0 174 181 206 255
0.628719 -0.228965 1.376 0 0 0 169 181 205 255
0.625977 -0.23977 1.37 0 0 0 172 185 199 255
0.625977 -0.24213 1.37 0 0 0 170 186 201 255
0.633627 -0.21004 1.392 0 0 0 174 183 196 255
0.633627 -0.212438 1.392 0 0 0 172 185 199 255
0.631351 -0.218845 1.387 0 0 0 174 183 198 255
0.62862 -0.225037 1.381 0 0 0 174 181 204 255
0.62862 -0.227417 1.381 0 0 0 172 180 205 255
0.626344 -0.228965 1.376 0 0 0 169 181 205 255
0.626344 -0.231336 1.376 0 0 0 170 183 206 255
0.661963 -0.233707 1.376 0 0 0 169 181 205 255
0.633946 -0.203718 1.398 0 0 0 172 189 170 255
0.631225 -0.21004 1.392 0 0 0 172 181 197 255
0.631225 -0.212438 1.392 0 0 0 172 185 201 255
0.626237 -0.225037 1.381 0 0 0 170 183 206 255
0.626237 -0.227417 1.381 0 0 0 170 182 210 255
0.62397 -0.228965 1.376 0 0 0 169 183 210 255
0.62397 -0.231336 1.376 0 0 0 170 185 205 255
0.62397 -0.233707 1.376 0 0 0 171 186 206 255
0.621249 -0.23977 1.37 0 0 0 174 185 204 255
0.618982 -0.245951 1.365 0 0 0 174 184 208 255
0.618982 -0.248303 1.365 0 0 0 176 184 206 255
0.616261 -0.251895 1.359 0 0 0 173 184 203 255
0.616261 -0.254237 1.359 0 0 0 172 187 209 255
0.659588 -0.233707 1.376 0 0 0 170 183 206 255
0.628823 -0.21004 1.392 0 0 0 174 183 198 255
0.628823 -0.212438 1.392 0 0 0 172 185 201 255
0.623854 -0.225037 1.381 0 0 0 170 183 206 255
0.621595 -0.228965 1.376 0 0 0 170 184 211 255
0.621595 -0.231336 1.376 0 0 0 170 185 205 255
0.621595 -0.233707 1.376 0 0 0 170 185 205 255
0.618885 -0.23977 1.37 0 0 0 174 185 204 255
0.618885 -0.24213 1.37 0 0 0 172 184 205 255
0.616626 -0.243599 1.365 0 0 0 176 185 211 255
0.616626 -0.245951 1.365 0 0 0 176 185 209 255
0.616626 -0.248303 1.365 0 0 0 177 185 207 255
0.613915 -0.251895 1.359 0 0 0 174 185 204 255
0.657214 -0.233707 1.376 0 0 0 170 183 204 255
0.626421 -0.21004 1.392 0 0 0 174 182 191 255
0.626421 -0.212438 1.392 0 0 0 169 183 197 255
0.621471 -0.225037 1.381 0 0 0 175 183 201 255
0.61922 -0.228965 1.376 0 0 0 169 184 202 255
0.61922 -0.231336 1.376 0 0 0 170 184 200 255
0.61922 -0.233707 1.376 0 0 0 172 185 201 255
0.61652 -0.237409 1.37 0 0 0 173 186 204 255
0.61427 -0.241247 1.365 0 0 0 176 184 206 255
0.61427 -0.243599 1.365 0 0 0 176 184 206 255
0.61427 -0.245951 1.365 0 0 0 176 186 207 255
0.61427 -0.248303 1.365 0 0 0 174 185 206 255
0.61157 -0.251895 1.359 0 0 0 179 190 207 255
0.654839 -0.233707 1.376 0 0 0 170 183 204 255
0.626708 -0.203718 1.398 0 0 0 199 201 146 255
0.626708 -0.206127 1.398 0 0 0 193 195 155 255
0.624019 -0.21004 1.392 0 0 0 178 185 194 255
0.624019 -0.212438 1.392 0 0 0 167 181 194 255
0.619087 -0.225037 1.381 0 0 0 175 183 201 255
0.616846 -0.228965 1.376 0 0 0 169 184 202 255
0.616846 -0.231336 1.376 0 0 0 170 184 200 255
0.616846 -0.233707 1.376 0 0 0 172 185 201 255
0.614156 -0.237409 1.37 0 0 0 173 186 204 255
0.611915 -0.241247 1.365 0 0 0 177 185 207 255
0.611915 -0.243599 1.365 0 0 0 176 184 206 255
0.611915 -0.245951 1.365 0 0 0 176 186 207 255
0.611915 -0.248303 1.365 0 0 0 174 185 206 255
0.609225 -0.256578 1.359 0 0 0 175 188 206 255
0.621616 -0.21004 1.392 0 0 0 188 189 125 255
0.621616 -0.212438 1.392 0 0 0 175 184 156 255
0.616704 -0.225037 1.381 0 0 0 175 183 201 255
0.614471 -0.228965 1.376 0 0 0 172 185 201 255
0.614471 -0.231336 1.376 0 0 0 175 183 201 255
0.614471 -0.233707 1.376 0 0 0 172 185 203 255
0.609559 -0.241247 1.365 0 0 0 177 185 205 255
0.609559 -0.243599 1.365 0 0 0 176 184 204 255
0.60688 -0.256578 1.359 0 0 0 177 187 206 255
0.614321 -0.225037 1.381 0 0 0 175 183 201 255
0.612097 -0.228965 1.376 0 0 0 173 186 202 255
0.612097 -0.231336 1.376 0 0 0 175 183 201 255
0.607204 -0.241247 1.365 0 0 0 177 185 205 255
0.611938 -0.225037 1.381 0 0 0 175 183 201 255
0.609722 -0.228965 1.376 0 0 0 174 185 202 255
0.609722 -0.231336 1.376 0 0 0 174 182 202 255
0.607063 -0.235048 1.37 0 0 0 177 188 204 255
0.607063 -0.237409 1.37 0 0 0 174 187 205 255
0.604848 -0.241247 1.365 0 0 0 176 186 203 255
0.604848 -0.243599 1.365 0 0 0 176 186 194 255
0.599974 -0.255634 1.354 0 0 0 177 188 204 255
0.609555 -0.222658 1.381 0 0 0 176 184 202 255
0.609555 -0.225037 1.381 0 0 0 174 182 200 255
0.607348 -0.228965 1.376 0 0 0 174 185 202 255
0.607348 -0.231336 1.376 0 0 0 174 182 202 255
0.604699 -0.237409 1.37 0 0 0 170 183 202 255
0.602492 -0.241247 1.365 0 0 0 178 189 206 255
0.602492 -0.243599 1.365 0 0 0 178 188 196 255
0.609809 -0.218845 1.387 0 0 0 201 194 110 255
0.607171 -0.222658 1.381 0 0 0 190 193 133 255
0.602335 -0.23977 1.37 0 0 0 176 187 201 255
0.600137 -0.241247 1.365 0 0 0 178 189 206 255
0.600137 -0.243599 1.365 0 0 0 180 191 206 255
0.600137 -0.245951 1.365 0 0 0 177 185 205 255
0.599971 -0.23977 1.37 0 0 0 177 188 202 255
0.597781 -0.241247 1.365 0 0 0 177 188 204 255
0.597781 -0.243599 1.365 0 0 0 178 189 204 255
0.592964 -0.255634 1.354 0 0 0 177 187 206 255
0.597607 -0.23977 1.37 0 0 0 175 187 212 255
0.597607 -0.24213 1.37 0 0 0 175 188 208 255
0.595426 -0.243599 1.365 0 0 0 178 188 212 255
0.590627 -0.255634 1.354 0 0 0 179 188 206 255
0.595242 -0.23977 1.37 0 0 0 170 182 208 255
0.59307 -0.243599 1.365 0 0 0 178 188 212 255
0.59307 -0.245951 1.365 0 0 0 181 193 207 255
0.59307 -0.248303 1.365 0 0 0 181 191 199 255
0.588291 -0.255634 1.354 0 0 0 179 188 206 255
0.592878 -0.23977 1.37 0 0 0 180 186 202 255
0.592878 -0.24213 1.37 0 0 0 181 188 202 255
0.590714 -0.243599 1.365 0 0 0 177 189 198 255
0.585954 -0.255634 1.354 0 0 0 178 186 206 255
0.590514 -0.24213 1.37 0 0 0 182 189 203 255
0.588359 -0.243599 1.365 0 0 0 177 189 198 255
0.583617 -0.255634 1.354 0 0 0 178 186 206 255
0.638217 -0.233707 1.376 0 0 0 170 183 202 255
0.58815 -0.24213 1.37 0 0 0 187 189 159 255
0.581281 -0.255634 1.354 0 0 0 179 188 206 255
0.583648 -0.243599 1.365 0 0 0 190 193 190 255
0.635843 -0.233707 1.376 0 0 0 170 183 202 255
0.633468 -0.233707 1.376 0 0 0 173 185 206 255
0.631093 -0.233707 1.376 0 0 0 170 183 204 255
0.628719 -0.231336 1.376 0 0 0 169 181 205 255
0.628719 -0.233707 1.376 0 0 0 170 183 202 255
0.567261 -0.255634 1.354 0 0 0 185 191 198 255
0.626344 -0.233707 1.376 0 0 0 172 185 203 255
0.612097 -0.233707 1.376 0 0 0 170 183 202 255
0.720094 -0.135869 1.445 0 0 0 157 167 187 255
0.712613 -0.130889 1.445 0 0 0 177 182 153 255
0.698325 -0.15565 1.421 0 0 0 162 171 195 255
0.662897 -0.201309 1.398 0 0 0 167 179 202 255
0.660484 -0.201309 1.398 0 0 0 166 178 201 255
0.643596 -0.201309 1.398 0 0 0 170 180 199 255
0.641184 -0.201309 1.398 0 0 0 170 180 199 255
0.720094 -0.130889 1.445 0 0 0 159 173 182 255
0.7176 -0.128399 1.445 0 0 0 159 172 177 255
0.639713 -0.254237 1.359 0 0 0 170 184 211 255
0.637368 -0.254237 1.359 0 0 0 171 185 212 255
0.710119 -0.130889 1.445 0 0 0 198 190 115 255
0.700219 -0.178741 1.41 0 0 0 161 173 198 255
0.700219 -0.181171 1.41 0 0 0 160 174 198 255
0.717104 -0.145223 1.439 0 0 0 163 173 192 255
0.635023 -0.254237 1.359 0 0 0 168 185 211 255
0.707626 -0.130889 1.445 0 0 0 208 199 125 255
0.714621 -0.145223 1.439 0 0 0 164 174 194 255
0.632677 -0.254237 1.359 0 0 0 168 185 211 255
0.705132 -0.135869 1.445 0 0 0 209 200 117 255
0.697786 -0.181171 1.41 0 0 0 160 174 198 255
0.712137 -0.145223 1.439 0 0 0 167 175 193 255
0.630332 -0.254237 1.359 0 0 0 173 187 216 255
0.697818 -0.176937 1.415 0 0 0 163 176 199 255
0.695352 -0.181171 1.41 0 0 0 160 174 198 255
0.690493 -0.17206 1.415 0 0 0 162 174 200 255
0.688051 -0.17206 1.415 0 0 0 162 174 200 255
0.673399 -0.179375 1.415 0 0 0 169 179 196 255
0.663166 -0.251895 1.359 0 0 0 160 176 205 255
0.670957 -0.179375 1.415 0 0 0 167 179 193 255
0.658475 -0.251895 1.359 0 0 0 165 182 205 255
0.65613 -0.251895 1.359 0 0 0 163 179 203 255
0.653785 -0.251895 1.359 0 0 0 164 180 208 255
0.653716 -0.255634 1.354 0 0 0 163 181 193 255
0.651379 -0.255634 1.354 0 0 0 163 179 205 255
0.637368 -0.251895 1.359 0 0 0 170 183 215 255
0.637798 -0.235048 1.37 0 0 0 168 181 199 255
0.705144 -0.17206 1.415 0 0 0 159 176 198 255
0.702702 -0.17206 1.415 0 0 0 160 177 199 255
0.63307 -0.235048 1.37 0 0 0 170 183 202 255
0.63307 -0.23977 1.37 0 0 0 169 182 203 255
0.690493 -0.169622 1.415 0 0 0 165 174 201 255
0.628342 -0.235048 1.37 0 0 0 170 183 202 255
0.688051 -0.169622 1.415 0 0 0 163 172 198 255
0.625977 -0.235048 1.37 0 0 0 170 184 200 255
0.692934 -0.17206 1.415 0 0 0 162 174 200 255
0.692934 -0.176937 1.415 0 0 0 160 170 196 255
0.692934 -0.179375 1.415 0 0 0 162 174 200 255
0.623613 -0.235048 1.37 0 0 0 172 185 201 255
0.690493 -0.176937 1.415 0 0 0 162 174 202 255
0.690493 -0.179375 1.415 0 0 0 162 173 204 255
0.621249 -0.235048 1.37 0 0 0 172 184 205 255
0.688051 -0.176937 1.415 0 0 0 162 174 202 255
0.688051 -0.179375 1.415 0 0 0 163 174 205 255
0.618885 -0.235048 1.37 0 0 0 172 184 205 255
0.685609 -0.17206 1.415 0 0 0 164 173 200 255
0.685609 -0.176937 1.415 0 0 0 163 178 200 255
0.683167 -0.17206 1.415 0 0 0 165 174 201 255
0.683167 -0.176937 1.415 0 0 0 162 176 199 255
0.678283 -0.17206 1.415 0 0 0 165 175 199 255
0.609428 -0.235048 1.37 0 0 0 174 185 204 255
0.673399 -0.176937 1.415 0 0 0 169 179 196 255
0.689435 -0.194082 1.398 0 0 0 160 177 199 255
0.599971 -0.235048 1.37 0 0 0 178 188 198 255
0.687022 -0.196491 1.398 0 0 0 161 176 192 255
0.674959 -0.196491 1.398 0 0 0 167 178 199 255
0.672547 -0.196491 1.398 0 0 0 167 177 203 255
0.672547 -0.194082 1.398 0 0 0 163 174 205 255
0.670134 -0.194082 1.398 0 0 0 165 176 206 255
0.667722 -0.194082 1.398 0 0 0 165 178 196 255
0.665511 -0.249553 1.359 0 0 0 165 181 207 255
0.663166 -0.249553 1.359 0 0 0 163 178 207 255
0.702702 -0.176937 1.415 0 0 0 157 171 198 255
0.70026 -0.176937 1.415 0 0 0 162 174 198 255
0.674892 -0.249553 1.359 0 0 0 161 178 204 255
0.672547 -0.249553 1.359 0 0 0 161 177 206 255
0.697818 -0.174498 1.415 0 0 0 161 175 198 255
0.670201 -0.249553 1.359 0 0 0 157 173 201 255
0.667856 -0.249553 1.359 0 0 0 164 180 206 255
0.675841 -0.174498 1.415 0 0 0 169 179 196 255
0.653785 -0.247211 1.359 0 0 0 173 184 212 255
0.682197 -0.203718 1.398 0 0 0 161 179 207 255
0.649094 -0.247211 1.359 0 0 0 170 183 206 255
0.646749 -0.247211 1.359 0 0 0 172 184 207 255
0.679784 -0.203718 1.398 0 0 0 157 176 204 255
0.644404 -0.249553 1.359 0 0 0 170 182 208 255
0.677372 -0.203718 1.398 0 0 0 161 178 200 255
0.648421 -0.203718 1.398 0 0 0 171 180 197 255
0.646009 -0.203718 1.398 0 0 0 165 174 192 255
0.7176 -0.143339 1.445 0 0 0 163 173 192 255
0.710119 -0.143339 1.445 0 0 0 162 176 199 255
0.707626 -0.140849 1.445 0 0 0 155 173 174 255
0.702638 -0.143339 1.445 0 0 0 182 191 163 255
0.705682 -0.165444 1.421 0 0 0 157 171 196 255
0.705682 -0.167893 1.421 0 0 0 154 168 191 255
0.705144 -0.176937 1.415 0 0 0 163 177 204 255
0.627987 -0.254237 1.359 0 0 0 171 185 214 255
0.703229 -0.165444 1.421 0 0 0 166 178 201 255
0.703229 -0.167893 1.421 0 0 0 158 172 199 255
0.700777 -0.165444 1.421 0 0 0 166 178 201 255
0.700777 -0.167893 1.421 0 0 0 160 173 201 255
0.698325 -0.165444 1.421 0 0 0 169 179 196 255
0.698325 -0.167893 1.421 0 0 0 163 172 196 255
0.695873 -0.162995 1.421 0 0 0 162 171 195 255
0.695873 -0.165444 1.421 0 0 0 165 176 193 255
0.695873 -0.167893 1.421 0 0 0 164 174 198 255
0.69342 -0.162995 1.421 0 0 0 161 173 198 255
0.69342 -0.165444 1.421 0 0 0 167 174 199 255
0.690968 -0.165444 1.421 0 0 0 165 173 198 255
0.688516 -0.165444 1.421 0 0 0 169 178 202 255
0.688516 -0.170341 1.421 0 0 0 162 171 199 255
0.688051 -0.181813 1.415 0 0 0 163 176 199 255
0.686064 -0.170341 1.421 0 0 0 163 172 201 255
0.685609 -0.181813 1.415 0 0 0 166 177 194 255
0.703229 -0.17279 1.421 0 0 0 161 175 200 255
0.673901 -0.227417 1.381 0 0 0 166 180 212 255
0.700777 -0.17279 1.421 0 0 0 161 175 200 255
0.683611 -0.165444 1.421 0 0 0 163 176 199 255
0.683167 -0.181813 1.415 0 0 0 166 177 194 255
0.670805 -0.248303 1.365 0 0 0 165 180 204 255
0.680725 -0.181813 1.415 0 0 0 169 180 194 255
0.678283 -0.181813 1.415 0 0 0 169 180 194 255
0.668533 -0.235048 1.37 0 0 0 169 182 201 255
0.652465 -0.231336 1.376 0 0 0 168 182 207 255
0.647715 -0.231336 1.376 0 0 0 171 180 197 255
0.683611 -0.170341 1.421 0 0 0 165 175 199 255
0.663632 -0.181813 1.415 0 0 0 169 180 194 255
0.682197 -0.196491 1.398 0 0 0 163 178 200 255
0.659076 -0.235048 1.37 0 0 0 167 180 198 255
0.681159 -0.170341 1.421 0 0 0 165 175 199 255
0.656712 -0.235048 1.37 0 0 0 169 182 201 255
0.70026 -0.179375 1.415 0 0 0 161 173 198 255
0.678707 -0.170341 1.421 0 0 0 162 175 194 255
0.678707 -0.17279 1.421 0 0 0 165 178 194 255
0.66966 -0.21004 1.392 0 0 0 165 177 200 255
0.654348 -0.235048 1.37 0 0 0 170 185 205 255
0.679784 -0.196491 1.398 0 0 0 162 176 199 255
0.676255 -0.17279 1.421 0 0 0 166 179 195 255
0.677372 -0.196491 1.398 0 0 0 166 176 198 255
0.697818 -0.179375 1.415 0 0 0 161 173 198 255
0.673802 -0.17279 1.421 0 0 0 165 178 185 255
0.623613 -0.24213 1.37 0 0 0 171 187 202 255
0.621249 -0.24213 1.37 0 0 0 173 185 206 255
0.685609 -0.179375 1.415 0 0 0 172 185 203 255
0.680725 -0.179375 1.415 0 0 0 167 178 195 255
0.635434 -0.235048 1.37 0 0 0 170 183 202 255
0.678283 -0.179375 1.415 0 0 0 167 178 195 255
0.630706 -0.235048 1.37 0 0 0 173 186 204 255
0.720094 -0.12342 1.445 0 0 0 172 175 138 255
0.720094 -0.12591 1.445 0 0 0 162 171 154 255
0.7176 -0.12342 1.445 0 0 0 182 186 148 255
0.7176 -0.12591 1.445 0 0 0 165 175 158 255
0.660726 -0.257968 1.354 0 0 0 168 179 210 255
0.618885 -0.237409 1.37 0 0 0 176 186 205 255
0.715107 -0.12591 1.445 0 0 0 190 186 126 255
0.61652 -0.235048 1.37 0 0 0 172 184 205 255
0.614156 -0.235048 1.37 0 0 0 172 184 205 255
0.693682 -0.21004 1.392 0 0 0 173 182 211 255
0.684609 -0.203718 1.398 0 0 0 163 180 199 255
0.69128 -0.21004 1.392 0 0 0 165 174 203 255
0.611792 -0.235048 1.37 0 0 0 172 183 202 255
0.688878 -0.21004 1.392 0 0 0 162 174 202 255
0.686476 -0.21004 1.392 0 0 0 163 175 203 255
0.604699 -0.235048 1.37 0 0 0 174 185 202 255
0.642033 -0.257968 1.354 0 0 0 171 188 207 255
0.679269 -0.21004 1.392 0 0 0 163 175 201 255
0.676867 -0.21004 1.392 0 0 0 166 178 203 255
0.639696 -0.257968 1.354 0 0 0 168 186 205 255
0.674465 -0.21004 1.392 0 0 0 170 184 209 255
0.63736 -0.257968 1.354 0 0 0 172 184 207 255
0.672062 -0.21004 1.392 0 0 0 165 180 204 255
0.590514 -0.235048 1.37 0 0 0 186 191 164 255
0.597607 -0.235048 1.37 0 0 0 176 184 202 255
0.595242 -0.235048 1.37 0 0 0 176 184 202 255
0.592878 -0.235048 1.37 0 0 0 183 187 161 255
0.696803 -0.159433 1.433 0 0 0 161 173 198 255
0.69433 -0.159433 1.433 0 0 0 163 176 199 255
0.689384 -0.156964 1.433 0 0 0 165 174 173 255
0.691857 -0.159433 1.433 0 0 0 162 174 198 255
0.689384 -0.159433 1.433 0 0 0 160 175 190 255
0.638771 -0.201309 1.398 0 0 0 174 184 190 255
0.686911 -0.159433 1.433 0 0 0 160 175 190 255
0.609722 -0.233707 1.376 0 0 0 175 183 201 255
0.636358 -0.201309 1.398 0 0 0 172 183 188 255
0.607348 -0.233707 1.376 0 0 0 174 182 200 255
0.646749 -0.254237 1.359 0 0 0 169 183 206 255
0.633946 -0.201309 1.398 0 0 0 182 187 151 255
0.644404 -0.254237 1.359 0 0 0 169 183 206 255
0.7176 -0.130889 1.445 0 0 0 158 172 181 255
0.569598 -0.255634 1.354 0 0 0 182 190 199 255
0.715107 -0.130889 1.445 0 0 0 170 175 146 255
0.564924 -0.255634 1.354 0 0 0 190 195 202 255
0.672409 -0.255634 1.354 0 0 0 167 179 204 255
0.670072 -0.257968 1.354 0 0 0 163 178 207 255
0.585773 -0.249553 1.359 0 0 0 178 189 204 255
0.667736 -0.257968 1.354 0 0 0 160 176 205 255
0.581082 -0.249553 1.359 0 0 0 183 191 202 255
0.60688 -0.254237 1.359 0 0 0 177 188 204 255
0.663062 -0.257968 1.354 0 0 0 169 181 209 255
0.650443 -0.207641 1.392 0 0 0 169 182 201 255
0.625642 -0.254237 1.359 0 0 0 170 187 208 255
0.658389 -0.257968 1.354 0 0 0 167 178 208 255
0.653716 -0.257968 1.354 0 0 0 166 181 201 255
0.651379 -0.257968 1.354 0 0 0 165 181 207 255
0.646706 -0.255634 1.354 0 0 0 170 185 203 255
0.646706 -0.257968 1.354 0 0 0 170 186 210 255
0.644369 -0.257968 1.354 0 0 0 172 188 212 255
0.644369 -0.255634 1.354 0 0 0 172 188 205 255
0.673802 -0.175238 1.421 0 0 0 166 178 192 255
0.70026 -0.174498 1.415 0 0 0 163 178 200 255
0.65613 -0.249553 1.359 0 0 0 165 180 202 255
0.670072 -0.255634 1.354 0 0 0 172 183 213 255
0.683167 -0.174498 1.415 0 0 0 163 176 199 255
0.637798 -0.237409 1.37 0 0 0 172 185 203 255
0.635434 -0.237409 1.37 0 0 0 173 186 204 255
0.63307 -0.237409 1.37 0 0 0 170 183 202 255
0.7176 -0.133379 1.445 0 0 0 159 172 188 255
0.7176 -0.135869 1.445 0 0 0 153 164 183 255
0.7176 -0.138359 1.445 0 0 0 160 173 191 255
0.675841 -0.176937 1.415 0 0 0 169 179 196 255
0.630706 -0.237409 1.37 0 0 0 175 183 203 255
0.715107 -0.135869 1.445 0 0 0 157 176 174 255
0.628342 -0.237409 1.37 0 0 0 174 182 202 255
0.712613 -0.133379 1.445 0 0 0 165 178 169 255
0.712613 -0.135869 1.445 0 0 0 157 176 174 255
0.712613 -0.138359 1.445 0 0 0 161 175 186 255
0.621471 -0.227417 1.381 0 0 0 170 183 202 255
0.625977 -0.237409 1.37 0 0 0 173 186 202 255
0.710119 -0.133379 1.445 0 0 0 185 184 109 255
0.710119 -0.135869 1.445 0 0 0 173 177 137 255
0.710119 -0.138359 1.445 0 0 0 169 179 155 255
0.709654 -0.147703 1.439 0 0 0 160 171 188 255
0.623613 -0.237409 1.37 0 0 0 173 186 202 255
0.623613 -0.23977 1.37 0 0 0 172 185 199 255
0.707171 -0.147703 1.439 0 0 0 159 171 194 255
0.621249 -0.237409 1.37 0 0 0 176 186 205 255
0.707626 -0.135869 1.445 0 0 0 188 192 152 255
0.707626 -0.138359 1.445 0 0 0 174 185 161 255
0.705132 -0.138359 1.445 0 0 0 193 190 109 255
0.704687 -0.147703 1.439 0 0 0 160 172 195 255
0.702204 -0.147703 1.439 0 0 0 162 174 179 255
0.602335 -0.237409 1.37 0 0 0 177 188 202 255
0.599971 -0.237409 1.37 0 0 0 177 188 202 255
0.597607 -0.237409 1.37 0 0 0 177 185 205 255
0.696672 -0.196491 1.398 0 0 0 161 175 200 255
0.595242 -0.237409 1.37 0 0 0 174 182 202 255
0.69426 -0.196491 1.398 0 0 0 162 176 201 255
0.592878 -0.237409 1.37 0 0 0 179 187 180 255
0.590514 -0.237409 1.37 0 0 0 179 187 180 255
0.58815 -0.23977 1.37 0 0 0 189 191 124 255
0.706695 -0.149556 1.433 0 0 0 155 167 191 255
0.691847 -0.196491 1.398 0 0 0 162 176 199 255
0.704222 -0.149556 1.433 0 0 0 163 173 192 255
0.689435 -0.196491 1.398 0 0 0 161 175 198 255
0.658475 -0.249553 1.359 0 0 0 166 181 203 255
0.583427 -0.249553 1.359 0 0 0 182 189 201 255
0.653785 -0.249553 1.359 0 0 0 166 180 207 255
0.651439 -0.249553 1.359 0 0 0 166 180 207 255
0.676255 -0.175238 1.421 0 0 0 169 179 196 255
0.696672 -0.203718 1.398 0 0 0 165 177 200 255
0.720094 -0.138359 1.445 0 0 0 160 173 191 255
0.639713 -0.249553 1.359 0 0 0 170 183 204 255
0.715107 -0.138359 1.445 0 0 0 160 174 185 255
0.625642 -0.256578 1.359 0 0 0 173 183 207 255
0.695376 -0.174498 1.415 0 0 0 162 174 200 255
0.692934 -0.174498 1.415 0 0 0 161 173 198 255
0.61157 -0.256578 1.359 0 0 0 174 187 205 255
0.658475 -0.247211 1.359 0 0 0 173 186 204 255
0.708134 -0.167893 1.421 0 0 0 154 168 191 255
0.708134 -0.170341 1.421 0 0 0 160 175 192 255
0.65613 -0.247211 1.359 0 0 0 170 183 202 255
0.720094 -0.140849 1.445 0 0 0 161 173 196 255
0.7176 -0.140849 1.445 0 0 0 160 172 195 255
0.657219 -0.227417 1.381 0 0 0 168 181 199 255
0.715107 -0.140849 1.445 0 0 0 163 174 188 255
0.654836 -0.227417 1.381 0 0 0 168 182 205 255
0.700777 -0.15565 1.421 0 0 0 162 171 188 255
0.712613 -0.140849 1.445 0 0 0 162 173 187 255
0.650834 -0.201309 1.398 0 0 0 169 179 200 255
0.708134 -0.165444 1.421 0 0 0 156 170 195 255
0.649094 -0.251895 1.359 0 0 0 168 180 203 255
0.720094 -0.143339 1.445 0 0 0 165 176 195 255
0.644404 -0.247211 1.359 0 0 0 170 185 203 255
0.576608 -0.255634 1.354 0 0 0 181 188 204 255
0.660726 -0.253301 1.354 0 0 0 158 174 201 255
0.642058 -0.247211 1.359 0 0 0 169 184 202 255
0.688051 -0.174498 1.415 0 0 0 161 173 198 255
0.658389 -0.253301 1.354 0 0 0 159 175 202 255
0.656052 -0.253301 1.354 0 0 0 163 180 201 255
0.635471 -0.248303 1.365 0 0 0 170 183 206 255
0.710119 -0.140849 1.445 0 0 0 158 176 177 255
0.633115 -0.248303 1.365 0 0 0 170 182 208 255
0.63076 -0.248303 1.365 0 0 0 172 183 209 255
0.653716 -0.253301 1.354 0 0 0 158 175 196 255
0.651379 -0.253301 1.354 0 0 0 161 179 207 255
0.678283 -0.174498 1.415 0 0 0 165 176 202 255
0.630332 -0.251895 1.359 0 0 0 172 187 211 255
0.626048 -0.248303 1.365 0 0 0 170 184 211 255
0.623854 -0.227417 1.381 0 0 0 170 182 210 255
0.578944 -0.255634 1.354 0 0 0 179 188 206 255
0.686064 -0.167893 1.421 0 0 0 160 170 196 255
0.703229 -0.170341 1.421 0 0 0 160 174 198 255
0.609225 -0.251895 1.359 0 0 0 176 186 203 255
0.700777 -0.170341 1.421 0 0 0 160 174 198 255
0.681159 -0.167893 1.421 0 0 0 162 176 199 255
0.60688 -0.251895 1.359 0 0 0 174 185 202 255
0.698325 -0.170341 1.421 0 0 0 161 173 198 255
0.597781 -0.245951 1.365 0 0 0 175 183 203 255
0.683611 -0.167893 1.421 0 0 0 161 175 198 255
0.595426 -0.245951 1.365 0 0 0 176 187 201 255
0.595426 -0.248303 1.365 0 0 0 176 186 194 255
0.681671 -0.21004 1.392 0 0 0 164 176 188 255
0.695376 -0.176937 1.415 0 0 0 165 174 201 255
0.690968 -0.167893 1.421 0 0 0 160 170 196 255
0.688516 -0.167893 1.421 0 0 0 160 170 196 255
0.629121 -0.201309 1.398 0 0 0 206 198 122 255
0.613915 -0.249553 1.359 0 0 0 177 185 205 255
0.627987 -0.251895 1.359 0 0 0 172 187 211 255
0.61157 -0.249553 1.359 0 0 0 176 186 205 255
0.686064 -0.165444 1.421 0 0 0 165 175 199 255
0.651439 -0.251895 1.359 0 0 0 165 181 210 255
0.609225 -0.249553 1.359 0 0 0 174 185 204 255
0.60688 -0.249553 1.359 0 0 0 179 185 203 255
0.590514 -0.23977 1.37 0 0 0 182 189 205 255
0.636358 -0.203718 1.398 0 0 0 169 183 195 255
0.69426 -0.203718 1.398 0 0 0 163 176 199 255
0.604535 -0.249553 1.359 0 0 0 179 185 203 255
0.602189 -0.249553 1.359 0 0 0 178 187 202 255
0.691847 -0.203718 1.398 0 0 0 163 177 202 255
0.590463 -0.249553 1.359 0 0 0 177 188 204 255
0.595154 -0.249553 1.359 0 0 0 179 187 210 255
0.592808 -0.249553 1.359 0 0 0 177 188 204 255
0.677237 -0.249553 1.359 0 0 0 161 178 204 255
0.720094 -0.133379 1.445 0 0 0 160 173 189 255
0.651439 -0.247211 1.359 0 0 0 169 181 209 255
0.67316 -0.248303 1.365 0 0 0 161 178 200 255
0.693682 -0.212438 1.392 0 0 0 167 179 202 255
0.715107 -0.133379 1.445 0 0 0 162 175 166 255
0.631533 -0.201309 1.398 0 0 0 189 194 158 255
0.684073 -0.21004 1.392 0 0 0 166 178 190 255
0.665309 -0.203718 1.398 0 0 0 167 179 200 255
0.662897 -0.203718 1.398 0 0 0 167 179 200 255
0.658071 -0.203718 1.398 0 0 0 168 181 201 255
0.588118 -0.249553 1.359 0 0 0 180 191 206 255
0.672062 -0.207641 1.392 0 0 0 166 178 203 255
0.66966 -0.205242 1.392 0 0 0 166 177 207 255
0.66966 -0.207641 1.392 0 0 0 164 178 207 255
0.655659 -0.203718 1.398 0 0 0 168 181 201 255
0.644404 -0.256578 1.359 0 0 0 172 188 205 255
0.639713 -0.256578 1.359 0 0 0 171 185 212 255
0.680725 -0.174498 1.415 0 0 0 168 180 205 255
0.616261 -0.249553 1.359 0 0 0 176 184 204 255
0.637368 -0.256578 1.359 0 0 0 169 183 210 255
0.649043 -0.255634 1.354 0 0 0 165 181 207 255
0.648421 -0.201309 1.398 0 0 0 173 179 197 255
0.672547 -0.203718 1.398 0 0 0 164 178 205 255
0.642058 -0.254237 1.359 0 0 0 166 181 203 255
0.64804 -0.207641 1.392 0 0 0 170 183 202 255
0.638771 -0.203718 1.398 0 0 0 168 182 193 255
0.595301 -0.255634 1.354 0 0 0 177 187 206 255
0.60231 -0.255634 1.354 0 0 0 177 187 206 255
0.613915 -0.256578 1.359 0 0 0 172 187 211 255
0.674745 -0.253301 1.354 0 0 0 165 179 206 255
0.662454 -0.207641 1.392 0 0 0 166 181 201 255
0.595242 -0.24213 1.37 0 0 0 170 183 204 255
0.664368 -0.227417 1.381 0 0 0 167 178 206 255
0.670134 -0.201309 1.398 0 0 0 169 178 202 255
0.642058 -0.249553 1.359 0 0 0 167 179 204 255
0.613915 -0.254237 1.359 0 0 0 170 185 207 255
0.597637 -0.255634 1.354 0 0 0 177 188 204 255
0.674465 -0.207641 1.392 0 0 0 169 181 207 255
0.705682 -0.170341 1.421 0 0 0 160 175 192 255
0.641184 -0.203718 1.398 0 0 0 170 180 199 255
0.707171 -0.145223 1.439 0 0 0 160 172 195 255
0.715107 -0.12342 1.445 0 0 0 206 195 119 255
0.695376 -0.179375 1.415 0 0 0 163 175 201 255
0.571934 -0.255634 1.354 0 0 0 182 190 199 255
0.708134 -0.162995 1.421 0 0 0 160 173 201 255
0.643236 -0.207641 1.392 0 0 0 170 181 195 255
0.643596 -0.203718 1.398 0 0 0 171 181 201 255
0.640834 -0.207641 1.392 0 0 0 171 181 201 255
0.574271 -0.255634 1.354 0 0 0 181 188 204 255
0.61157 -0.254237 1.359 0 0 0 172 188 203 255
0.712613 -0.12591 1.445 0 0 0 202 198 138 255
0.616261 -0.256578 1.359 0 0 0 176 190 215 255
0.667736 -0.255634 1.354 0 0 0 167 178 208 255
0.672409 -0.253301 1.354 0 0 0 162 176 203 255
0.69342 -0.167893 1.421 0 0 0 164 173 200 255
0.690493 -0.174498 1.415 0 0 0 161 173 198 255
0.609225 -0.254237 1.359 0 0 0 172 188 203 255
0.660484 -0.203718 1.398 0 0 0 167 179 200 255
0.670072 -0.253301 1.354 0 0 0 170 178 212 255
0.707626 -0.133379 1.445 0 0 0 199 198 123 255
0.602335 -0.235048 1.37 0 0 0 178 188 198 255
